<svg width="13" height="24.14" viewBox="0 0 25 13" fill="none" xmlns="http://www.w3.org/2000/svg">
<path d="M23.7428 11.3959C23.741 11.6959 23.6177 11.9953 23.373 12.226L23.3728 12.2261C22.8668 12.7035 22.037 12.7035 21.5311 12.2261L21.5232 12.2345L21.5311 12.2261L12.3457 3.5599L12.0712 3.30091L11.7967 3.5599L2.61178 12.2258C2.10549 12.7033 1.27571 12.7032 0.769767 12.2259L0.769708 12.2258C0.525704 11.9957 0.402467 11.6972 0.400037 11.398C0.401876 11.0981 0.525111 10.7986 0.769782 10.5678L0.769785 10.5678L11.1506 0.773762C11.4013 0.537307 11.7333 0.415846 12.0712 0.415846C12.4093 0.415846 12.7415 0.537566 12.9922 0.773969L23.3728 10.568L23.3729 10.5681C23.6171 10.7983 23.7403 11.0968 23.7428 11.3959Z" fill="white" stroke="white" stroke-width="0.8"/>
</svg>
