<svg width="35" height="35" viewBox="0 0 35 35" fill="none" xmlns="http://www.w3.org/2000/svg">
<g clip-path="url(#clip0_7126_930)">
<circle cx="17.5" cy="17.5" r="16.5" stroke="#303030" stroke-width="2"/>
<g clip-path="url(#clip1_7126_930)">
<path d="M13.4447 13.8592H10.2981C10.1584 13.8592 10.0453 13.9724 10.0453 14.112V24.2205C10.0453 24.3602 10.1584 24.4733 10.2981 24.4733H13.4447C13.5843 24.4733 13.6975 24.3602 13.6975 24.2205V14.112C13.6975 13.9724 13.5843 13.8592 13.4447 13.8592Z" fill="#303030"/>
<path d="M11.8725 8.83394C10.7276 8.83394 9.7962 9.76436 9.7962 10.908C9.7962 12.0521 10.7276 12.9829 11.8725 12.9829C13.0165 12.9829 13.9472 12.0521 13.9472 10.908C13.9473 9.76436 13.0165 8.83394 11.8725 8.83394Z" fill="#303030"/>
<path d="M21.4482 13.6079C20.1844 13.6079 19.2502 14.1512 18.6835 14.7685V14.112C18.6835 13.9724 18.5704 13.8592 18.4307 13.8592H15.4174C15.2777 13.8592 15.1646 13.9724 15.1646 14.112V24.2205C15.1646 24.3602 15.2777 24.4733 15.4174 24.4733H18.557C18.6967 24.4733 18.8098 24.3602 18.8098 24.2205V19.2191C18.8098 17.5338 19.2676 16.8772 20.4425 16.8772C21.722 16.8772 21.8236 17.9298 21.8236 19.3058V24.2206C21.8236 24.3602 21.9368 24.4734 22.0764 24.4734H25.2173C25.3569 24.4734 25.4701 24.3602 25.4701 24.2206V18.6759C25.4701 16.1698 24.9922 13.6079 21.4482 13.6079Z" fill="#303030"/>
</g>
</g>
<defs>
<clipPath id="clip0_7126_930">
<rect width="35" height="35" fill="white"/>
</clipPath>
<clipPath id="clip1_7126_930">
<rect width="15.6739" height="15.6739" fill="white" transform="translate(9.7962 8.8167)"/>
</clipPath>
</defs>
</svg>
