<svg width="29" height="16" viewBox="0 0 29 16" fill="none" xmlns="http://www.w3.org/2000/svg">
<path d="M17.0307 5.52928C16.5833 4.93587 16.0213 4.44237 15.3795 4.0793C14.7376 3.71622 14.0296 3.49127 13.2992 3.41835C12.5688 3.34544 11.8315 3.42611 11.1328 3.65537C10.4342 3.88464 9.78905 4.25763 9.23731 4.7513L8.76065 4.38176C5.48598 2.02835 0.900479 4.0268 0.471483 8.05773C0.34098 9.99969 0.307571 11.9472 0.371384 13.8926C0.360856 14.1423 0.400742 14.3914 0.488564 14.6247C0.576387 14.858 0.710272 15.0703 0.88191 15.2486C1.05355 15.4269 1.25928 15.5673 1.48632 15.6611C1.71337 15.7549 1.95689 15.8 2.20177 15.7938C2.44143 15.7927 2.6784 15.7423 2.89845 15.6454C3.11851 15.5486 3.31709 15.4073 3.48227 15.2302C3.64746 15.0531 3.77583 14.8437 3.85968 14.6147C3.94352 14.3856 3.98111 14.1417 3.97019 13.8975C3.97019 12.4971 3.97019 11.0967 3.97019 9.69149C3.96633 9.2749 3.99502 8.85866 4.05599 8.44672C4.13287 8.0251 4.3634 7.64881 4.70121 7.39352C5.03901 7.13823 5.45905 7.02288 5.87684 7.07066C6.28524 7.10207 6.66838 7.28435 6.95445 7.58333C7.24052 7.88231 7.40987 8.27746 7.43076 8.6947C7.45459 9.21012 7.43076 9.72553 7.43076 10.2409C7.43076 11.4954 7.43076 12.7499 7.43076 14.0044C7.42587 14.3683 7.53195 14.7247 7.73434 15.0244C7.93673 15.3241 8.22541 15.5521 8.56045 15.6771C9.77594 16.1925 11.0153 15.2881 11.0391 13.8634C11.0391 12.2054 11.0391 10.5473 11.0868 8.8892C11.1028 8.48838 11.2229 8.0991 11.4347 7.76112C11.6364 7.4631 11.9287 7.24114 12.2665 7.12952C12.6042 7.01791 12.9685 7.02285 13.3032 7.1436C13.6808 7.25154 14.0109 7.48776 14.2388 7.81317C14.4668 8.13857 14.579 8.53364 14.5569 8.93296C14.5569 10.6105 14.5569 12.288 14.5569 13.9655C14.5569 14.2063 14.6033 14.4446 14.6937 14.6671C14.784 14.8895 14.9163 15.0915 15.0832 15.2618C15.2501 15.432 15.4482 15.567 15.6662 15.6591C15.8842 15.7513 16.1179 15.7987 16.3539 15.7987C16.5899 15.7987 16.8236 15.7513 17.0416 15.6591C17.2596 15.567 17.4577 15.432 17.6246 15.2618C17.7914 15.0915 17.9238 14.8895 18.0141 14.6671C18.1044 14.4446 18.1509 14.2063 18.1509 13.9655C18.1509 12.2491 18.1509 10.5619 18.1509 8.82113C18.1542 7.62603 17.7592 6.46529 17.0307 5.52928Z" fill="white"/>
<path d="M26.035 6.5015L25.4678 6.26325C26.0302 5.8159 26.5641 5.43177 27.0407 4.99416C27.4642 4.65403 27.8298 4.24496 28.1228 3.78342C28.9808 2.14966 27.77 0.248458 25.8491 0.204696C24.0759 0.180384 22.3075 0.180384 20.5343 0.180384C20.3171 0.165073 20.0992 0.19678 19.8949 0.273425C19.6905 0.350069 19.5044 0.46992 19.3486 0.625113C19.1929 0.780306 19.0711 0.967335 18.9912 1.17393C18.9113 1.38052 18.8751 1.60202 18.8851 1.82387C18.8638 2.04985 18.891 2.27783 18.9648 2.49201C19.0385 2.7062 19.157 2.90146 19.3121 3.06428C19.4671 3.22709 19.6551 3.35356 19.8628 3.43492C20.0706 3.51627 20.2932 3.55057 20.5152 3.53544C21.3828 3.53544 22.2503 3.53544 23.1178 3.53544C23.2656 3.58406 23.4181 3.58406 23.7041 3.58406C22.5268 4.55654 21.44 5.4804 20.3675 6.39453C19.6763 6.97802 19.4666 7.61499 19.7097 8.33949C19.8388 8.6971 20.0794 9.00161 20.3946 9.20627C20.7097 9.41093 21.082 9.50443 21.4543 9.47243C22.3742 9.47243 23.2989 9.47243 24.2189 9.47243C24.4252 9.43352 24.6374 9.44139 24.8404 9.4955C25.0434 9.54961 25.2322 9.64862 25.3935 9.78551C25.5548 9.92241 25.6846 10.0938 25.7736 10.2876C25.8627 10.4814 25.9089 10.6928 25.9089 10.9068C25.9089 11.1209 25.8627 11.3323 25.7736 11.5261C25.6846 11.7198 25.5548 11.8913 25.3935 12.0282C25.2322 12.1651 25.0434 12.2641 24.8404 12.3182C24.6374 12.3723 24.4252 12.3802 24.2189 12.3412C23.0273 12.3412 21.8356 12.3412 20.6439 12.3412C20.2262 12.3643 19.833 12.5498 19.5453 12.8596C19.2576 13.1694 19.0972 13.5799 19.0972 14.0066C19.0972 14.4334 19.2576 14.8439 19.5453 15.1537C19.833 15.4635 20.2262 15.649 20.6439 15.672C21.888 15.672 23.1369 15.672 24.381 15.672C25.4738 15.6437 26.5239 15.2331 27.3553 14.5089C28.1867 13.7848 28.7488 12.7912 28.9474 11.6945C29.1057 10.6209 28.9043 9.52417 28.3758 8.58176C27.8473 7.63936 27.0225 6.90642 26.035 6.5015Z" fill="white"/>
</svg>
