<svg width="35" height="35" viewBox="0 0 35 35" fill="none" xmlns="http://www.w3.org/2000/svg">
<g clip-path="url(#clip0_7126_922)">
<circle cx="17.5" cy="17.5" r="16.5" stroke="#303030" stroke-width="2"/>
<path d="M29.9915 10.1563C29.0947 10.5497 28.1392 10.8104 27.143 10.937C28.1679 10.3251 28.95 9.36358 29.3178 8.20462C28.3623 8.7743 27.3073 9.1767 26.183 9.40126C25.2757 8.43521 23.9826 7.83688 22.572 7.83688C19.8351 7.83688 17.6317 10.0584 17.6317 12.7817C17.6317 13.1735 17.6648 13.5503 17.7462 13.909C13.6363 13.7086 9.99968 11.7388 7.55666 8.73813C7.13015 9.47812 6.87997 10.3251 6.87997 11.2369C6.87997 12.949 7.76163 14.4666 9.07583 15.3453C8.28158 15.3302 7.50241 15.0996 6.8423 14.7364C6.8423 14.7515 6.8423 14.7711 6.8423 14.7907C6.8423 17.193 8.55588 19.1884 10.803 19.6481C10.4006 19.7581 9.96201 19.8108 9.50686 19.8108C9.19037 19.8108 8.87086 19.7928 8.57095 19.7264C9.21147 21.6842 11.029 23.1235 13.1902 23.1702C11.5083 24.4859 9.37273 25.2786 7.06083 25.2786C6.65541 25.2786 6.26658 25.2605 5.87775 25.2108C8.06757 26.623 10.6628 27.4293 13.4615 27.4293C22.5584 27.4293 27.5319 19.8937 27.5319 13.3619C27.5319 13.1434 27.5243 12.9324 27.5138 12.7229C28.4949 12.0266 29.3193 11.157 29.9915 10.1563Z" fill="#303030"/>
</g>
<defs>
<clipPath id="clip0_7126_922">
<rect width="35" height="35" fill="white"/>
</clipPath>
</defs>
</svg>
