<svg width="46" height="16" viewBox="0 0 46 16" fill="none" xmlns="http://www.w3.org/2000/svg">
<path d="M32.8807 5.99083H31.2736V11.4557C31.2736 11.558 31.1851 11.6456 31.0819 11.6456H29.8433C29.7401 11.6456 29.6517 11.558 29.6517 11.4557V5.99083H28.0298C27.9855 5.99083 27.9265 5.97622 27.8971 5.94699C27.8676 5.91777 27.8381 5.87394 27.8381 5.81549V4.8511C27.8381 4.80727 27.8528 4.74882 27.8971 4.7196C27.9265 4.69037 27.9855 4.66115 28.0298 4.67576H32.8807C32.9839 4.67576 33.0724 4.74882 33.0724 4.8511V5.81549C33.0724 5.91777 32.9839 5.99083 32.8807 5.99083Z" fill="white"/>
<path d="M38.0559 11.6017C37.4219 11.6894 36.7732 11.7332 36.1391 11.7186C34.9153 11.7186 33.839 11.4118 33.839 9.70216V6.58983C33.839 4.88024 34.9301 4.588 36.1539 4.588C36.7879 4.57339 37.4219 4.61723 38.0559 4.7049C38.1886 4.71951 38.2476 4.77796 38.2476 4.89485V5.77157C38.2476 5.87385 38.1592 5.96152 38.0559 5.96152H36.0654C35.6231 5.96152 35.4609 6.10764 35.4609 6.60444V7.45193H37.9822C38.0854 7.45193 38.1739 7.53961 38.1739 7.64189V8.53321C38.1739 8.6355 38.0854 8.72317 37.9822 8.72317H35.4609V9.71678C35.4609 10.199 35.6231 10.3597 36.0654 10.3597H38.0559C38.1592 10.3597 38.2476 10.4474 38.2476 10.5497V11.4264C38.2476 11.5286 38.1886 11.5871 38.0559 11.6017Z" fill="white"/>
<path d="M45.1925 11.6455H43.6885C43.5853 11.6601 43.4821 11.6016 43.4379 11.4993L42.1256 9.45367L40.946 11.4555C40.8871 11.5724 40.8133 11.6455 40.7101 11.6455H39.3094C39.2799 11.6455 39.2357 11.6455 39.2062 11.6162C39.1767 11.587 39.1619 11.5578 39.1619 11.5139C39.1619 11.4847 39.1767 11.4701 39.1767 11.4555L41.2262 8.06555L39.1472 4.85094C39.1324 4.83632 39.1324 4.8071 39.1324 4.79249C39.1324 4.71943 39.2062 4.66098 39.2799 4.67559H40.8281C40.9313 4.67559 41.005 4.76327 41.064 4.85094L42.273 6.75048L43.4526 4.85094C43.4969 4.74865 43.5853 4.69021 43.6885 4.67559H45.0893C45.163 4.67559 45.2367 4.71943 45.2367 4.79249C45.2367 4.8071 45.222 4.83632 45.222 4.85094L43.1577 8.09477L45.3104 11.4555C45.3252 11.4847 45.3399 11.5139 45.3399 11.5432C45.3252 11.6016 45.2662 11.6455 45.1925 11.6455Z" fill="white"/>
<path d="M25.5821 4.69058C25.5084 4.69058 25.4494 4.73442 25.4347 4.80748L24.0634 9.84857C24.0487 9.95085 24.0192 9.99469 23.9307 9.99469C23.8423 9.99469 23.8128 9.95085 23.798 9.84857L22.4268 4.80748C22.412 4.73442 22.353 4.69058 22.2793 4.69058H20.9228C20.8786 4.69058 20.8344 4.70519 20.8049 4.74903C20.7754 4.77825 20.7606 4.82209 20.7754 4.86592C20.7754 4.86592 22.4563 10.6522 22.471 10.7107C22.6922 11.3974 23.2377 11.7335 23.9307 11.7335C24.5942 11.7627 25.1988 11.339 25.3904 10.7107C25.4199 10.6376 27.0566 4.86592 27.0566 4.86592C27.0713 4.82209 27.0566 4.77825 27.0271 4.74903C26.9976 4.71981 26.9534 4.69058 26.9091 4.69058H25.5821Z" fill="white"/>
<path d="M17.9149 0H3.80434C3.28828 0 2.81645 0.277625 2.56579 0.70137C2.30039 1.13973 2.28565 1.68037 2.52156 2.11872L3.93704 4.77808H1.37148C1.0471 4.77808 0.737464 4.93881 0.560528 5.21644C0.383593 5.49406 0.383593 5.84475 0.531039 6.13699L5.07237 14.6411C5.23457 14.9479 5.55895 15.1379 5.89807 15.1379C6.2372 15.1379 6.56158 14.9479 6.72377 14.6411L7.96232 12.3324L9.5105 15.2402C9.76116 15.7078 10.2625 16 10.7933 16C11.3241 16 11.8254 15.7078 12.0761 15.2402L19.1535 2.04566C19.3894 1.60731 19.3746 1.08128 19.1092 0.672146C18.8733 0.248402 18.4015 0 17.9149 0ZM11.6042 5.56712L8.50787 11.3242C8.40465 11.5288 8.19823 11.6457 7.96232 11.6457C7.7264 11.6457 7.51998 11.5142 7.41677 11.3242L4.36463 5.62557C4.27617 5.45023 4.27617 5.24566 4.37938 5.07032C4.48259 4.89498 4.67427 4.79269 4.86595 4.79269H11.1177C11.3093 4.79269 11.4863 4.88036 11.5747 5.0411C11.6927 5.20183 11.6927 5.40639 11.6042 5.56712Z" fill="white"/>
</svg>
