<svg width="34" height="34" viewBox="0 0 34 34" fill="none" xmlns="http://www.w3.org/2000/svg">
<g clip-path="url(#clip0_3403_1267)">
<path d="M17.0042 0H16.9958C7.62238 0 0 7.6245 0 17C0 20.7188 1.1985 24.1655 3.23638 26.9641L1.11775 33.2796L7.65213 31.1908C10.3403 32.9715 13.5469 34 17.0042 34C26.3776 34 34 26.3734 34 17C34 7.62663 26.3776 0 17.0042 0Z" fill="#4CAF50"/>
<path d="M26.8961 24.0061C26.486 25.1642 24.8582 26.1247 23.5599 26.4052C22.6716 26.5944 21.5114 26.7452 17.6056 25.126C12.6097 23.0562 9.39249 17.9796 9.14174 17.6502C8.90161 17.3209 7.12299 14.9621 7.12299 12.5226C7.12299 10.0831 8.36186 8.89524 8.86124 8.38524C9.27136 7.96662 9.94924 7.77537 10.5995 7.77537C10.8099 7.77537 10.999 7.78599 11.169 7.79449C11.6684 7.81574 11.9191 7.84549 12.2485 8.63387C12.6586 9.62199 13.6574 12.0615 13.7764 12.3122C13.8975 12.563 14.0186 12.903 13.8486 13.2324C13.6892 13.5724 13.549 13.7232 13.2982 14.0122C13.0475 14.3012 12.8095 14.5222 12.5587 14.8325C12.3292 15.1024 12.07 15.3914 12.359 15.8907C12.648 16.3795 13.6467 18.0094 15.1172 19.3184C17.0149 21.0077 18.5534 21.5475 19.1037 21.777C19.5139 21.947 20.0026 21.9066 20.3022 21.5879C20.6826 21.1777 21.1522 20.4977 21.6304 19.8284C21.9704 19.3481 22.3996 19.2886 22.8501 19.4586C23.3091 19.618 25.738 20.8186 26.2374 21.0672C26.7367 21.318 27.0661 21.437 27.1872 21.6474C27.3062 21.8577 27.3062 22.8459 26.8961 24.0061Z" fill="white"/>
</g>
<defs>
<clipPath id="clip0_3403_1267">
<rect width="34" height="34" fill="white"/>
</clipPath>
</defs>
</svg>
