<svg width="35" height="35" viewBox="0 0 35 35" fill="none" xmlns="http://www.w3.org/2000/svg">
<g clip-path="url(#clip0_7126_927)">
<circle cx="17.5" cy="17.5" r="16.5" stroke="#303030" stroke-width="2"/>
<path d="M27.8027 12.2486C27.5447 11.2896 26.7886 10.5336 25.8297 10.2754C24.0779 9.79604 17.0706 9.79604 17.0706 9.79604C17.0706 9.79604 10.0636 9.79604 8.31176 10.2572C7.3713 10.5152 6.59672 11.2897 6.33875 12.2486C5.87775 14.0003 5.87775 17.633 5.87775 17.633C5.87775 17.633 5.87775 21.284 6.33875 23.0174C6.59699 23.9763 7.35285 24.7323 8.31189 24.9905C10.082 25.47 17.0709 25.47 17.0709 25.47C17.0709 25.47 24.0779 25.47 25.8297 25.0088C26.7887 24.7507 27.5447 23.9947 27.803 23.0358C28.2638 21.284 28.2638 17.6514 28.2638 17.6514C28.2638 17.6514 28.2823 14.0003 27.8027 12.2486ZM14.8396 20.989V14.277L20.6665 17.633L14.8396 20.989Z" fill="#303030"/>
</g>
<defs>
<clipPath id="clip0_7126_927">
<rect width="35" height="35" fill="white"/>
</clipPath>
</defs>
</svg>
